<svg xmlns="http://www.w3.org/2000/svg" width="114" height="45" viewBox="0 0 114 45">
    <g>
        <g>
            <path fill="#ff0000" d="M27.008 14.5l.244.034c.835.127 3.692.64 6.797 2.078 5.176 2.395 5.365 5.233 5.309 6.701-.1 2.669-2.856 4.613-5.358 5.525l-.087.032c-2.523.9-6.473 1.494-6.473 1.494 1.922-1.981 3.163-4.743 3.163-7.725 0-3.225-1.417-6.126-3.596-8.14zM16.89.026l6.58 12.31a10.907 10.907 0 0 0-3.876-.706c-6.081 0-11.009 4.928-11.009 11.008 0 3.08 1.264 5.86 3.3 7.86l-.191-.004a14.727 14.727 0 0 1-2.14-.22l-.155-.03c-1.287-.255-3.74-.973-5.625-2.105C1.815 26.96-.16 25.054.01 22.92l.046-.564c.168-1.872.57-3.583 4.503-9.203C8.367 7.718 15.022 1.683 16.565.313zm2.704 14.531a8.077 8.077 0 0 1 0 16.154 8.078 8.078 0 0 1 0-16.154z"/>
        </g>
        <g>
            <path fill="#000000" d="M78.923 11.797c-3.884-.003-7.1 3.203-7.314 7.24l-.006.123v.634c.155 4.061 3.395 7.294 7.32 7.293 4.002-.008 7.323-3.386 7.323-7.606-.002-4.26-3.323-7.676-7.323-7.684zm-24.154 0c-3.882-.003-7.1 3.203-7.316 7.24l-.005.123-.002.634c.158 4.061 3.4 7.294 7.323 7.293 4.004-.008 7.323-3.386 7.323-7.606 0-4.26-3.325-7.676-7.323-7.684zm48.265 0c-4.001.008-7.324 3.424-7.324 7.684 0 4.22 3.321 7.598 7.324 7.606 3.89 0 7.108-3.168 7.324-7.161l.005-.122v-.635c-.156-4.104-3.402-7.375-7.33-7.372zM71.48 0l.032 11.209c2.133-2.117 4.525-3.025 7.408-3.02 6.076 0 10.884 5.061 10.896 11.296-.012 6.15-4.822 11.209-10.896 11.21-3.524.002-6.528-1.485-8.39-4.024l-.215-.292c-.488-.667-.897-1.248-1.206-1.962-.893-2.06-1.068-3.822-1.081-4.5l-.001-.07V.072zM47.33 0l.03 11.209c2.133-2.117 4.523-3.025 7.409-3.02 6.074 0 10.882 5.061 10.895 11.296-.013 6.15-4.821 11.209-10.895 11.21-3.48.002-6.453-1.447-8.318-3.925l-.29-.391c-.488-.667-.896-1.248-1.205-1.962-.908-2.098-1.074-3.885-1.08-4.537V.072zm63.136.001l3.45.07v19.782c0 .62-.157 2.436-1.08 4.571-.35.817-.834 1.458-1.419 2.255-1.835 2.504-4.781 3.985-8.242 4.024h-.147c-6.071 0-10.877-5.061-10.888-11.212.01-6.237 4.815-11.3 10.888-11.3 2.837-.005 5.191.874 7.3 2.918l.105.103z"/>
        </g>
    </g>
</svg>
